:SAMPLES-PER-SECOND 30
:FULLY-SPECIFIED
:DEGREES
196
root  3.29219 34.5187 -64.2649 -172.73 -0.0368805 -179.253
RightUpLeg  -5.56151 -10.3875 -2.71679
RightLeg  6.0735 -3.18448 -0.131463
RightFoot  5.72422 0.0366616 -0.158431
RightToes  -26.8766 -0.11508 -0.236706
Spine  -1.16477 0.0645075 0.929604
Spine1  -2.40866 0.253082 2.35899
HEad  -66.4972 3.9322 4.07333
LeftShoulder1  -1.94126e-019 -3.10601e-018 -2.51263e-017
LeftArm  -14.0119 20.9176 -80.5524
LeftForeArm  32.3283 -17.4533 -2.98743
LeftHand  -0.458723 -1.49251 7.90373
RightShoulder  -4.96962e-017 0 -2.36833e-017
RightArm  -30.2948 -19.3857 73.3398
RightForeArm  58.3764 12.3166 1.44574
RightHand  -0.360746 -1.69333 -10.9799
LeftUpLeg  -3.92379 -7.99397 5.64913
LeftLeg  7.79432 10.9282 0.779851
LeftFoot  4.04278 -0.00812872 0.889054
LeftToes  -24.5601 1.31378e-006 1.14341e-007
197
root  3.31137 34.5179 -64.1846 -172.843 -0.0738068 -179.255
RightUpLeg  -5.65025 -10.3414 -2.68469
RightLeg  6.23031 -3.25788 -0.143429
RightFoot  5.71159 0.0371928 -0.165916
RightToes  -26.91 -0.11511 -0.236906
Spine  -1.10107 0.0516543 0.929286
Spine1  -2.28264 0.221295 2.35381
HEad  -66.9205 4.00691 4.05766
LeftShoulder1  -1.94126e-019 -3.10601e-018 -2.51263e-017
LeftArm  -14.3201 20.8812 -80.4416
LeftForeArm  32.2929 -17.0432 -2.92797
LeftHand  -0.459557 -1.41974 7.99671
RightShoulder  -4.96962e-017 0 -2.36833e-017
RightArm  -30.462 -19.4759 73.1855
RightForeArm  58.5745 12.2192 1.45428
RightHand  -0.360555 -1.68847 -11.0059
LeftUpLeg  -4.07749 -8.00175 5.68741
LeftLeg  8.05181 10.8695 0.824488
LeftFoot  4.01871 -0.00686989 0.878323
LeftToes  -24.6018 1.31378e-006 1.14341e-007
198
root  3.33106 34.5183 -64.1 -172.939 -0.0657959 -179.259
RightUpLeg  -5.74017 -10.3252 -2.64613
RightLeg  6.32844 -3.27406 -0.149756
RightFoot  5.74183 0.0374779 -0.170132
RightToes  -26.9146 -0.115139 -0.237037
Spine  -1.05541 0.0483801 0.922382
Spine1  -2.19245 0.210758 2.33607
HEad  -67.0782 4.09614 4.08612
LeftShoulder1  -1.94126e-019 -3.10601e-018 -2.51263e-017
LeftArm  -14.5068 20.9032 -80.3324
LeftForeArm  32.3686 -16.7815 -2.8889
LeftHand  -0.455702 -1.33641 8.02259
RightShoulder  -4.96962e-017 0 -2.36833e-017
RightArm  -30.5159 -19.5389 73.1004
RightForeArm  58.8051 12.1274 1.46182
RightHand  -0.360234 -1.65285 -11.0267
LeftUpLeg  -4.23702 -7.95401 5.73375
LeftLeg  8.29875 10.7923 0.865177
LeftFoot  4.00677 -0.0057334 0.869112
LeftToes  -24.7251 1.31378e-006 1.14341e-007
199
root  3.35111 34.5192 -64.0209 -173 -0.0394592 -179.262
RightUpLeg  -5.8331 -10.3607 -2.60816
RightLeg  6.36608 -3.20529 -0.148703
RightFoot  5.79738 0.0372613 -0.167399
RightToes  -26.9916 -0.115169 -0.237104
Spine  -1.01622 0.0531397 0.912224
Spine1  -2.11467 0.217262 2.31353
HEad  -67.0543 4.14581 4.11824
LeftShoulder1  -1.94126e-019 -3.10601e-018 -2.51263e-017
LeftArm  -14.5986 20.9337 -80.2344
LeftForeArm  32.4195 -16.672 -2.87029
LeftHand  -0.451478 -1.30801 7.98103
RightShoulder  -4.96962e-017 0 -2.36833e-017
RightArm  -30.4953 -19.5806 73.0598
RightForeArm  58.8958 12.1173 1.46233
RightHand  -0.361741 -1.60273 -10.9854
LeftUpLeg  -4.37965 -7.97542 5.76847
LeftLeg  8.46134 10.819 0.897989
LeftFoot  4.04458 -0.00575833 0.877563
LeftToes  -24.9435 1.31378e-006 1.14341e-007
200
root  3.36977 34.5209 -63.9474 -173.03 -0.00238037 -179.262
RightUpLeg  -5.91471 -10.4197 -2.57227
RightLeg  6.33329 -3.08808 -0.141468
RightFoot  5.86718 0.0367199 -0.16022
RightToes  -27.0904 -0.1152 -0.237111
Spine  -0.98617 0.0532205 0.903459
Spine1  -2.05488 0.216155 2.29515
HEad  -66.9893 4.17361 4.16832
LeftShoulder1  -1.94126e-019 -3.10601e-018 -2.51263e-017
LeftArm  -14.742 20.941 -80.1758
LeftForeArm  32.3952 -16.5864 -2.85595
LeftHand  -0.449281 -1.31287 7.96894
RightShoulder  -4.96962e-017 0 -2.36833e-017
RightArm  -30.5606 -19.5547 73.0839
RightForeArm  58.847 12.1181 1.46251
RightHand  -0.362019 -1.63556 -10.9736
LeftUpLeg  -4.49297 -7.99516 5.8032
LeftLeg  8.52628 10.8566 0.913378
LeftFoot  4.11457 -0.00629362 0.893545
LeftToes  -25.0935 1.31378e-006 1.14341e-007
201
root  3.39017 34.5266 -63.8729 -173.05 0.023941 -179.254
RightUpLeg  -6.00893 -10.4779 -2.51619
RightLeg  6.3076 -3.00449 -0.13627
RightFoot  5.94634 0.0363984 -0.156353
RightToes  -27.0613 -0.115234 -0.237062
Spine  -0.97359 0.0581267 0.891743
Spine1  -2.02962 0.232831 2.27167
HEad  -66.9323 4.14719 4.25846
LeftShoulder1  -1.94126e-019 -3.10601e-018 -2.51263e-017
LeftArm  -14.86 20.9284 -80.1268
LeftForeArm  32.4648 -16.5773 -2.85359
LeftHand  -0.448607 -1.41674 7.96501
RightShoulder  -4.96962e-017 0 -2.36833e-017
RightArm  -30.6513 -19.5118 73.1487
RightForeArm  58.9047 12.1302 1.46113
RightHand  -0.361985 -1.6128 -10.9691
LeftUpLeg  -4.59131 -7.95675 5.86112
LeftLeg  8.53256 10.8244 0.911884
LeftFoot  4.20485 -0.00679427 0.908576
LeftToes  -25.2147 1.31378e-006 1.14341e-007
202
root  3.41012 34.5305 -63.8015 -173.084 0.0370789 -179.243
RightUpLeg  -6.10268 -10.4149 -2.45959
RightLeg  6.33031 -3.04233 -0.139203
RightFoot  5.97052 0.0366702 -0.161111
RightToes  -26.9573 -0.115271 -0.236961
Spine  -0.956652 0.0630078 0.878583
Spine1  -1.99555 0.237535 2.24659
HEad  -66.638 4.0309 4.30662
LeftShoulder1  -1.94126e-019 -3.10601e-018 -2.51263e-017
LeftArm  -14.9666 20.9181 -80.0765
LeftForeArm  32.5555 -16.7278 -2.8722
LeftHand  -0.451335 -1.50338 7.83337
RightShoulder  -4.96962e-017 0 -2.36833e-017
RightArm  -30.5691 -19.4746 73.2455
RightForeArm  58.7303 12.3031 1.44527
RightHand  -0.365476 -1.55354 -10.8574
LeftUpLeg  -4.66723 -7.85413 5.92223
LeftLeg  8.51739 10.7415 0.902137
LeftFoot  4.28137 -0.00693009 0.917514
LeftToes  -25.3034 1.31378e-006 1.14341e-007
203
root  3.42652 34.5341 -63.7375 -173.132 -0.0111542 -179.238
RightUpLeg  -6.16695 -10.3723 -2.41627
RightLeg  6.36369 -3.12948 -0.145037
RightFoot  6.01244 0.0373431 -0.171718
RightToes  -27.0038 -0.115311 -0.236811
Spine  -0.953803 0.0629882 0.870431
Spine1  -1.98917 0.238515 2.23361
HEad  -66.3757 3.8415 4.37557
LeftShoulder1  -1.94126e-019 -3.10601e-018 -2.51263e-017
LeftArm  -14.8873 20.9046 -80.0558
LeftForeArm  32.494 -16.9587 -2.90042
LeftHand  -0.451118 -1.45064 7.79591
RightShoulder  -4.96962e-017 0 -2.36833e-017
RightArm  -30.2652 -19.5496 73.3089
RightForeArm  58.4226 12.6562 1.40886
RightHand  -0.367495 -1.39056 -10.7948
LeftUpLeg  -4.73502 -7.83173 5.97177
LeftLeg  8.51222 10.6628 0.894632
LeftFoot  4.37904 -0.00738175 0.930928
LeftToes  -25.5016 1.31378e-006 1.14341e-007
204
root  3.43982 34.5414 -63.6792 -173.19 -0.0851288 -179.224
RightUpLeg  -6.2143 -10.4409 -2.37319
RightLeg  6.40499 -3.12582 -0.147121
RightFoot  6.03694 0.0373149 -0.172399
RightToes  -26.8688 -0.115356 -0.236618
Spine  -0.975065 0.0538226 0.868203
Spine1  -2.03026 0.221816 2.23341
HEad  -66.1351 3.68565 4.40618
LeftShoulder1  -1.94126e-019 -3.10601e-018 -2.51263e-017
LeftArm  -14.8807 20.8937 -80.0459
LeftForeArm  32.3724 -17.1604 -2.93027
LeftHand  -0.452287 -1.55595 7.75904
RightShoulder  -4.96962e-017 0 -2.36833e-017
RightArm  -29.6017 -19.7418 73.3377
RightForeArm  57.7112 13.1878 1.34892
RightHand  -0.371101 -1.38196 -10.6798
LeftUpLeg  -4.81014 -7.82383 6.02529
LeftLeg  8.55429 10.57 0.894687
LeftFoot  4.42015 -0.00711039 0.93266
LeftToes  -25.4701 1.31378e-006 1.14341e-007
205
root  3.4511 34.5502 -63.6267 -173.259 -0.195724 -179.229
RightUpLeg  -6.21791 -10.4862 -2.35528
RightLeg  6.41733 -3.17345 -0.150058
RightFoot  6.07892 0.0377119 -0.179224
RightToes  -26.8283 -0.115407 -0.236384
Spine  -1.00065 0.026264 0.861744
Spine1  -2.08016 0.168319 2.22535
HEad  -65.7892 3.555 4.38131
LeftShoulder1  -1.94126e-019 -3.10601e-018 -2.51263e-017
LeftArm  -14.7421 20.9347 -80.0331
LeftForeArm  32.2731 -17.4544 -2.972
LeftHand  -0.450736 -1.55358 7.79484
RightShoulder  -4.96962e-017 0 -2.36833e-017
RightArm  -29.146 -19.8731 73.3527
RightForeArm  57.0333 13.596 1.30091
RightHand  -0.371875 -1.37893 -10.657
LeftUpLeg  -4.87556 -7.90291 6.05186
LeftLeg  8.59692 10.5261 0.898847
LeftFoot  4.50981 -0.00770596 0.947413
LeftToes  -25.5667 1.31378e-006 1.14341e-007
206
root  3.46011 34.5559 -63.5803 -173.324 -0.2715 -179.249
RightUpLeg  -6.22409 -10.4525 -2.35503
RightLeg  6.43898 -3.28884 -0.156785
RightFoot  6.10867 0.0385524 -0.192426
RightToes  -26.7914 -0.115464 -0.236114
Spine  -1.03152 0.0109098 0.851877
Spine1  -2.14096 0.139194 2.20886
HEad  -65.432 3.4383 4.4012
LeftShoulder1  -1.94126e-019 -3.10601e-018 -2.51263e-017
LeftArm  -14.6322 20.95 -80.031
LeftForeArm  32.17 -17.7243 -3.01053
LeftHand  -0.449786 -1.4876 7.75797
RightShoulder  -4.96962e-017 0 -2.36833e-017
RightArm  -28.76 -19.959 73.3225
RightForeArm  56.5652 13.8746 1.26807
RightHand  -0.372647 -1.3694 -10.6523
LeftUpLeg  -4.92856 -7.9912 6.05657
LeftLeg  8.6373 10.5236 0.906062
LeftFoot  4.59806 -0.00850422 0.964851
LeftToes  -25.6845 1.31378e-006 1.14341e-007
207
root  3.4644 34.5577 -63.5399 -173.388 -0.300613 -179.266
RightUpLeg  -6.23942 -10.4518 -2.36452
RightLeg  6.4763 -3.3113 -0.16002
RightFoot  6.11364 0.0386445 -0.194951
RightToes  -26.7891 -0.115528 -0.235812
Spine  -1.05328 0.003714 0.844982
Spine1  -2.18471 0.127287 2.19357
HEad  -65.2146 3.3542 4.36206
LeftShoulder1  -1.94126e-019 -3.10601e-018 -2.51263e-017
LeftArm  -14.619 20.9251 -80.0503
LeftForeArm  32.0989 -17.8997 -3.03506
LeftHand  -0.449572 -1.53927 7.70053
RightShoulder  -4.96962e-017 0 -2.36833e-017
RightArm  -28.6032 -19.9287 73.2723
RightForeArm  56.4068 13.9575 1.25867
RightHand  -0.376065 -1.33504 -10.5832
LeftUpLeg  -4.98063 -7.96957 6.05037
LeftLeg  8.72492 10.4628 0.916895
LeftFoot  4.60075 -0.00793763 0.960599
LeftToes  -25.6493 1.31378e-006 1.14341e-007
